<?xml version="1.0" encoding="UTF-8" standalone="no"?>
<!DOCTYPE svg PUBLIC "-//W3C//DTD SVG 20010904//EN"
"http://www.w3.org/TR/2001/REC-SVG-20010904/DTD/svg10.dtd">
<!-- Created with Sodipodi ("http://www.sodipodi.com/") -->
<svg
   xmlns="http://www.w3.org/2000/svg"
   xmlns:xlink="http://www.w3.org/1999/xlink"
   version="1.0"
   x="0"
   y="0"
   width="90"
   height="90"
   id="svg602"
   xml:space="preserve"
   xmlns:sodipodi="http://sodipodi.sourceforge.net/DTD/sodipodi-0.dtd"
   sodipodi:version="0.34"
   sodipodi:docname="/home/zeus/.icons/gartoon/scalable/apps/gnome-window-manager.svg"
   sodipodi:docbase="/home/zeus/.icons/gartoon/scalable/apps/"><sodipodi:namedview
   id="base" /><defs
   id="defs604" /><rect
   width="75.0000076"
   height="56.8750076"
   ry="4.11436176"
   x="13.7500048"
   y="24.9999905"
   style="font-size:12;fill-opacity:0.3229;fill-rule:evenodd;"
   id="rect683" /><rect
   width="75.9375076"
   height="56.8750076"
   ry="4.11436176"
   x="5.62500048"
   y="12.4999914"
   style="font-size:12;fill-opacity:0.3229;fill-rule:evenodd;"
   id="rect682" /><path
   d="M 17.08508 20.62499 C 14.25037 20.62499 11.96828 22.98328 11.96828 25.91262 L 11.96828 71.27489 C 11.96828 74.20422 14.25037 76.56252 17.08508 76.56252 L 80.10243 76.56252 C 82.93713 76.56252 85.21923 74.20422 85.21923 71.27489 L 85.21923 25.91262 C 85.21923 22.98328 82.93713 20.62499 80.10243 20.62499 L 17.08508 20.62499 z "
   style="font-size:12;fill:#66758a;fill-rule:evenodd;"
   id="path668" /><path
   d="M 18.37331 22.36007 C 15.70864 22.36007 13.56343 23.72118 13.56343 25.4119 L 13.56343 27.01813 C 13.56343 28.70884 15.70864 30.06996 18.37331 30.06996 L 77.61085 30.06996 C 80.27552 30.06996 82.42072 28.70884 82.42072 27.01813 L 82.42072 25.4119 C 82.42072 23.72118 80.27552 22.36007 77.61085 22.36007 L 18.37331 22.36007 z "
   style="font-size:12;fill:#99bed2;fill-rule:evenodd;"
   id="path669" /><path
   d="M 19.14645 31.66512 C 16.49531 31.66512 14.361 33.79943 14.361 36.45056 L 14.361 68.35355 C 14.361 71.00469 16.49531 73.139 19.14645 73.139 L 77.36942 73.139 C 80.02055 73.139 82.15486 71.00469 82.15486 68.35355 L 82.15486 36.45056 C 82.15486 33.79943 80.02055 31.66512 77.36942 31.66512 L 19.14645 31.66512 z "
   style="font-size:12;fill:#b3c3d7;fill-rule:evenodd;"
   id="path670" /><path
   d="M 20.9375 26.24999 C 20.9375 27.80329 19.6783 29.06249 18.125 29.06249 C 16.5717 29.06249 15.3125 27.80329 15.3125 26.24999 C 15.3125 24.69669 16.5717 23.43749 18.125 23.43749 C 19.6783 23.43749 20.9375 24.69669 20.9375 26.24999 z "
   style="font-size:12;fill:#ff0000;fill-rule:evenodd;"
   id="path671" /><path
   d="M 27.1875 26.24999 C 27.1875 27.80329 25.9283 29.06249 24.375 29.06249 C 22.8217 29.06249 21.5625 27.80329 21.5625 26.24999 C 21.5625 24.69669 22.8217 23.43749 24.375 23.43749 C 25.9283 23.43749 27.1875 24.69669 27.1875 26.24999 z "
   style="font-size:12;fill:#ff933d;fill-rule:evenodd;"
   id="path672" /><path
   d="M 33.125 26.24999 C 33.125 27.80329 31.8658 29.06249 30.3125 29.06249 C 28.7592 29.06249 27.5 27.80329 27.5 26.24999 C 27.5 24.69669 28.7592 23.43749 30.3125 23.43749 C 31.8658 23.43749 33.125 24.69669 33.125 26.24999 z "
   style="font-size:12;fill:#29ad17;fill-rule:evenodd;"
   id="path673" /><path
   d="M 73.125 23.74999 C 71.74 23.74999 70.625 24.86499 70.625 26.24999 C 70.625 27.63499 71.74 28.74999 73.125 28.74999 L 77.50001 28.74999 C 78.88501 28.74999 80.00001 27.63499 80.00001 26.24999 C 80.00001 24.86499 78.88501 23.74999 77.50001 23.74999 L 73.125 23.74999 z "
   style="font-size:12;fill:#c7dfff;fill-rule:evenodd;stroke:#000000;"
   id="path674" /><path
   d="M 8.960077 2.812495 C 6.125367 2.812495 3.843279 5.170778 3.843279 8.100118 L 3.843279 53.46239 C 3.843279 56.39172 6.125367 58.75002 8.960077 58.75002 L 71.97743 58.75002 C 74.81213 58.75002 77.09423 56.39172 77.09423 53.46239 L 77.09423 8.100118 C 77.09423 5.170778 74.81213 2.812495 71.97743 2.812495 L 8.960077 2.812495 z "
   style="font-size:12;fill:#3d4e67;fill-rule:evenodd;"
   id="path611"
   transform="translate(-0.625,4.0625)" /><path
   d="M 10.24831 4.547568 C 7.58364 4.547568 5.43843 5.90868 5.43843 7.5994 L 5.43843 9.20563 C 5.43843 10.89634 7.58364 12.25746 10.24831 12.25746 L 69.48585 12.25746 C 72.15052 12.25746 74.29572 10.89634 74.29572 9.20563 L 74.29572 7.5994 C 74.29572 5.90868 72.15052 4.547568 69.48585 4.547568 L 10.24831 4.547568 z "
   style="font-size:12;fill:#bae6ff;fill-rule:evenodd;"
   id="path610"
   transform="translate(-0.625,4.0625)" /><path
   d="M 11.02145 13.85262 C 8.37031 13.85262 6.236 15.98693 6.236 18.63806 L 6.236 50.54105 C 6.236 53.19219 8.37031 55.3265 11.02145 55.3265 L 69.24442 55.3265 C 71.89555 55.3265 74.02986 53.19219 74.02986 50.54105 L 74.02986 18.63806 C 74.02986 15.98693 71.89555 13.85262 69.24442 13.85262 L 11.02145 13.85262 z "
   style="font-size:12;fill:#ffffff;fill-rule:evenodd;fill-opacity:1;"
   id="path609"
   transform="translate(-0.625,4.0625)" /><path
   d="M 13.4375 10.62499 C 13.4375 12.17829 12.1783 13.43749 10.625 13.43749 C 9.071699 13.43749 7.8125 12.17829 7.8125 10.62499 C 7.8125 9.07169 9.071699 7.81249 10.625 7.81249 C 12.1783 7.81249 13.4375 9.07169 13.4375 10.62499 z "
   transform="translate(-1.25,1.875)"
   style="font-size:12;fill:#ff0000;fill-rule:evenodd;"
   id="path648" /><path
   d="M 19.0625 8.43749 C 19.0625 9.99079 17.8033 11.24999 16.25 11.24999 C 14.6967 11.24999 13.4375 9.99079 13.4375 8.43749 C 13.4375 6.88419 14.6967 5.62499 16.25 5.62499 C 17.8033 5.62499 19.0625 6.88419 19.0625 8.43749 z "
   style="font-size:12;fill:#ff933d;fill-rule:evenodd;"
   id="path649"
   transform="translate(-0.625,4.0625)" /><path
   d="M 25 8.43749 C 25 9.99079 23.7408 11.24999 22.1875 11.24999 C 20.6342 11.24999 19.375 9.99079 19.375 8.43749 C 19.375 6.88419 20.6342 5.62499 22.1875 5.62499 C 23.7408 5.62499 25 6.88419 25 8.43749 z "
   style="font-size:12;fill:#29ad17;fill-rule:evenodd;"
   id="path650"
   transform="translate(-0.625,4.0625)" /><path
   d="M 65 5.93749 C 63.615 5.93749 62.5 7.05249 62.5 8.43749 C 62.5 9.82249 63.615 10.93749 65 10.93749 L 69.37501 10.93749 C 70.76001 10.93749 71.87501 9.82249 71.87501 8.43749 C 71.87501 7.05249 70.76001 5.93749 69.37501 5.93749 L 65 5.93749 z "
   style="font-size:12;fill:#ffffff;fill-rule:evenodd;stroke:#000000;"
   id="path658"
   transform="translate(-0.625,4.0625)" /></svg>
