<?xml version="1.0" encoding="UTF-8" standalone="no"?>
<!DOCTYPE svg PUBLIC "-//W3C//DTD SVG 1.0//EN"
"http://www.w3.org/TR/2001/REC-SVG-20010904/DTD/svg10.dtd">
<!-- Created with Sodipodi ("http://www.sodipodi.com/") -->
<svg
   xmlns="http://www.w3.org/2000/svg"
   xmlns:xlink="http://www.w3.org/1999/xlink"
   version="1.0"
   x="0"
   y="0"
   width="90"
   height="90"
   id="svg548">
  <defs
     id="defs550">
    <linearGradient
       id="linearGradient589">
      <stop
         style="stop-color:#ffffff;stop-opacity:1;"
         offset="0"
         id="stop590" />
      <stop
         style="stop-color:#ffffff;stop-opacity:0;"
         offset="1"
         id="stop591" />
    </linearGradient>
    <linearGradient
       x1="38.4874878"
       y1="25.5889244"
       x2="50.0719948"
       y2="48.2551422"
       id="linearGradient592"
       xlink:href="#linearGradient589"
       gradientUnits="userSpaceOnUse"
       gradientTransform="scale(0.608808,1.642555)"
       spreadMethod="pad" />
    <linearGradient
       x1="-0.12901177"
       y1="2.34353207e-2"
       x2="0.70967788"
       y2="0.96093744"
       id="linearGradient594"
       xlink:href="#linearGradient589"
       gradientUnits="objectBoundingBox"
       spreadMethod="pad" />
    <linearGradient
       id="linearGradient596"
       xlink:href="#linearGradient589" />
    <linearGradient
       id="linearGradient629"
       xlink:href="#linearGradient589" />
    <linearGradient
       id="linearGradient631"
       xlink:href="#linearGradient589" />
  </defs>
  <path
     d="M 45.48322 67.51065 C 38.80803 67.85185 27.85353 68.83452 20.61832 52.46938 C 18.31177 46.59876 17.06935 36.21919 24.78285 26.13231 C 28.93627 20.94058 34.89214 16.80937 43.64394 18.58941 C 50.74188 18.38179 59.18952 28.73914 54.73942 36.00768 C 50.28933 43.27612 42.30839 44.90787 43.91423 47.25182 C 46.18394 49.23986 52.67372 47.14796 55.71089 51.02702 C 57.34264 54.14214 51.86174 65.43394 45.48322 67.51065 z "
     style="font-size:12;fill-opacity:0.3;fill-rule:evenodd;stroke-width:1;"
     id="path662" />
  <g
     transform="matrix(0.732763,0,0,0.732763,2.374114,1.711445)"
     style="font-size:12;"
     id="g667">
    <path
       d="M 28.5938 29.1406 C 28.5938 32.0299 27.1588 34.3749 25.3906 34.3749 C 23.6225 34.3749 22.1875 32.0299 22.1875 29.1406 C 22.1875 26.2512 23.6225 23.9062 25.3906 23.9062 C 27.1588 23.9062 28.5938 26.2512 28.5938 29.1406 z "
       transform="matrix(-2.447984e-2,1.881981,1.881981,2.447849e-2,-42.67223,-5.662441)"
       style="fill-opacity:0.3;fill-rule:evenodd;stroke-width:1;"
       id="path666" />
    <path
       d="M 28.5938 29.1406 C 28.5938 32.0299 27.1588 34.3749 25.3906 34.3749 C 23.6225 34.3749 22.1875 32.0299 22.1875 29.1406 C 22.1875 26.2512 23.6225 23.9062 25.3906 23.9062 C 27.1588 23.9062 28.5938 26.2512 28.5938 29.1406 z "
       transform="matrix(1.364979,-0.8957,0.8957,1.364979,-38.54071,9.130011)"
       style="fill-opacity:0.3;fill-rule:evenodd;stroke-width:1;"
       id="path665" />
    <path
       d="M 28.5938 29.1406 C 28.5938 32.0299 27.1588 34.3749 25.3906 34.3749 C 23.6225 34.3749 22.1875 32.0299 22.1875 29.1406 C 22.1875 26.2512 23.6225 23.9062 25.3906 23.9062 C 27.1588 23.9062 28.5938 26.2512 28.5938 29.1406 z "
       transform="matrix(1.710329,-8.44919e-2,8.449188e-2,1.710329,-8.95636,-30.89149)"
       style="fill-opacity:0.3;fill-rule:evenodd;stroke-width:1;"
       id="path664" />
    <path
       d="M 28.5938 29.1406 C 28.5938 32.0299 27.1588 34.3749 25.3906 34.3749 C 23.6225 34.3749 22.1875 32.0299 22.1875 29.1406 C 22.1875 26.2512 23.6225 23.9062 25.3906 23.9062 C 27.1588 23.9062 28.5938 26.2512 28.5938 29.1406 z "
       transform="matrix(2.056255,0.991635,-0.991636,2.056254,34.69159,-72.58045)"
       style="fill-opacity:0.3;fill-rule:evenodd;stroke-width:1;"
       id="path663" />
    <ellipse
       cx="41.4320526"
       cy="44.4799843"
       rx="5.41378784"
       ry="7.29204178"
       transform="matrix(1.766225,0,0,1.464769,-34.91358,-20.35575)"
       style="fill-rule:evenodd;stroke-width:1;"
       id="path559" />
    <path
       d="M 28.5938 29.1406 C 28.5938 32.0299 27.1588 34.3749 25.3906 34.3749 C 23.6225 34.3749 22.1875 32.0299 22.1875 29.1406 C 22.1875 26.2512 23.6225 23.9062 25.3906 23.9062 C 27.1588 23.9062 28.5938 26.2512 28.5938 29.1406 z "
       transform="matrix(1.364979,-0.8957,0.8957,1.364979,-41.04071,8.192511)"
       style="fill-rule:evenodd;stroke-width:1;"
       id="path583" />
    <path
       d="M 54.9883 81.4569 C 47.957 81.8163 36.4181 82.8514 28.7969 65.6132 C 26.3673 59.4294 25.0586 48.4961 33.1836 37.8711 C 37.5586 32.4024 43.8322 28.0508 53.0509 29.9258 C 60.5275 29.7071 69.4258 40.617 64.7383 48.2733 C 60.0508 55.9295 51.6441 57.6483 53.3356 60.1173 C 55.7264 62.2114 62.5624 60.0079 65.7616 64.0939 C 67.4804 67.3752 61.7071 79.2694 54.9883 81.4569 z "
       transform="matrix(1.259307,0,0,1.259307,-15.1584,-13.41655)"
       style="fill-rule:evenodd;stroke-width:1;"
       id="path570" />
    <path
       d="M 54.8438 80.1562 C 47.8125 81.0937 36.5626 81.4062 29.375 65.4687 C 27.5 60.7813 25.7812 49.2187 33.9062 38.5937 C 38.2812 33.125 44.8438 29.0624 54.0625 30.9374 C 61.2501 31.8749 68.1251 38.5937 63.4376 46.25 C 58.7501 53.9062 46.875 55.625 50.1562 61.5625 C 53.1251 68.2812 61.4063 62.0312 63.5938 66.4062 C 65.3126 69.6875 61.5626 77.9687 54.8438 80.1562 z "
       transform="matrix(1.164757,0,0,1.164757,-10.7657,-8.169355)"
       style="fill:#487196;fill-rule:evenodd;stroke-width:1;"
       id="path569" />
    <path
       d="M 42.5 76.5625 C 42.5 76.7187 30.4688 63.125 32.5 55 C 34.5313 46.875 35.9375 42.0312 35.9375 42.0312 C 35.9375 42.0312 28.5938 48.75 29.8438 58.2812 C 31.0938 67.8125 35.3125 74.5312 42.5 76.5625 z "
       transform="matrix(1.164757,0,0,1.164757,-10.7657,-8.169355)"
       style="fill:url(#linearGradient592);fill-rule:evenodd;stroke-width:1;"
       id="path588" />
    <path
       d="M 42.8125 68.2812 C 42.8125 68.2812 45.1562 69.8438 50.6251 71.2499 C 55.3126 71.875 61.7188 72.0312 63.5938 70.4687 C 65.4688 68.5937 67.1876 65.4687 67.1876 65.4687 C 67.1876 65.4687 64.2188 72.5 62.8126 74.5312 C 61.4063 76.5625 59.6876 78.75 57.0313 79.6875 C 55.3126 80.3125 52.1876 81.0938 48.7501 78.5937 C 45.9376 76.25 43.75 74.8437 42.8125 68.2812 z "
       transform="matrix(1.164757,0,0,1.164757,-10.7657,-8.169355)"
       style="fill-rule:evenodd;stroke-width:1;"
       id="path567" />
    <ellipse
       cx="41.4320526"
       cy="44.4799843"
       rx="5.41378784"
       ry="7.29204178"
       transform="matrix(1.411826,0,0,1.411826,-22.03179,-18.64424)"
       style="fill-rule:evenodd;stroke-width:1;"
       id="path560" />
    <ellipse
       cx="41.4320526"
       cy="44.4799843"
       rx="5.41378784"
       ry="7.29204178"
       transform="matrix(1.60199,0,0,1.601992,-15.49755,-29.67655)"
       style="fill-rule:evenodd;stroke-width:1;"
       id="path561" />
    <ellipse
       cx="41.4320526"
       cy="44.4799843"
       rx="5.41378784"
       ry="7.29204178"
       transform="matrix(1.321643,0,0,1.321643,-3.882174,-17.20666)"
       style="fill:#ffffff;fill-rule:evenodd;stroke-width:1;"
       id="path562" />
    <ellipse
       cx="41.4320526"
       cy="44.4799843"
       rx="5.41378784"
       ry="7.29204178"
       transform="matrix(1.164757,0,0,1.164757,-11.79521,-7.6546)"
       style="fill:#ffffff;fill-rule:evenodd;stroke-width:1;"
       id="path558" />
    <path
       d="M 44.6361 46.3582 C 44.6361 48.1269 43.5472 49.5623 42.2055 49.5623 C 40.8637 49.5623 39.7748 48.1269 39.7748 46.3582 C 39.7748 44.5896 40.8637 43.1542 42.2055 43.1542 C 43.5472 43.1542 44.6361 44.5896 44.6361 46.3582 z "
       transform="matrix(1.164757,0,0,1.164757,-12.76038,-9.391901)"
       style="fill-rule:evenodd;stroke-width:1;"
       id="path555" />
    <path
       d="M 56.3476 44.48 C 56.3476 46.5536 54.9617 48.2365 53.254 48.2365 C 51.5463 48.2365 50.1604 46.5536 50.1604 44.48 C 50.1604 42.4064 51.5463 40.7235 53.254 40.7235 C 54.9617 40.7235 56.3476 42.4064 56.3476 44.48 z "
       transform="matrix(1.164757,0,0,1.164757,-10.7657,-8.169355)"
       style="fill-rule:evenodd;stroke-width:1;"
       id="path554" />
    <ellipse
       cx="42.3159409"
       cy="45.0324097"
       rx="1.21534204"
       ry="1.43631005"
       transform="matrix(1.164757,0,0,1.164757,-12.76038,-9.391901)"
       style="fill:#ffffff;fill-rule:evenodd;stroke-width:1;"
       id="path556" />
    <ellipse
       cx="53.2539978"
       cy="43.5960999"
       rx="1.54679894"
       ry="1.54679894"
       transform="matrix(1.076514,0,0,1.164757,-6.475862,-9.352312)"
       style="fill:#ffffff;fill-rule:evenodd;stroke-width:1;"
       id="path557" />
    <path
       d="M 47.1875 71.0937 L 46.4063 75.1562 C 46.4063 75.1562 44.0625 71.4062 44.0625 70.1562 C 44.5312 69.2188 44.8438 71.0937 47.1875 71.0937 z "
       transform="matrix(1.164757,0,0,1.164757,-10.7657,-8.169355)"
       style="fill:#ffffff;fill-rule:evenodd;stroke-width:1;"
       id="path563" />
    <path
       d="M 48.2813 71.875 C 48.2813 71.875 47.8125 75.9374 47.9688 76.2499 C 48.125 76.5624 52.5 79.2187 53.125 78.2812 C 53.7501 77.3437 54.0626 72.9687 54.0626 72.9687 C 54.0626 72.9687 50.4688 73.2812 48.2813 71.875 z "
       transform="matrix(1.164757,0,0,1.164757,-10.7657,-8.169355)"
       style="fill:#ffffff;fill-rule:evenodd;stroke-width:1;"
       id="path564" />
    <path
       d="M 55.4688 72.8125 L 54.8438 78.4375 C 54.8438 78.4375 56.5625 78.9062 58.1251 77.5 C 59.6876 76.0937 59.8438 72.8125 59.8438 72.8125 L 55.4688 72.8125 z "
       transform="matrix(1.164757,0,0,1.164757,-10.7657,-8.169355)"
       style="fill:#ffffff;fill-rule:evenodd;stroke-width:1;"
       id="path565" />
    <path
       d="M 60.7813 72.1875 C 60.7813 72.3437 60.3126 76.2499 60.3126 76.2499 C 60.3126 76.2499 63.4376 71.7187 63.5938 71.7187 C 63.7501 71.7187 60.9376 72.1875 60.7813 72.1875 z "
       transform="matrix(1.164757,0,0,1.164757,-10.7657,-8.169355)"
       style="fill:#ffffff;fill-rule:evenodd;stroke-width:1;"
       id="path566" />
    <path
       d="M 40.1563 71.7187 C 40.1563 71.25 40.9375 69.2187 43.125 68.2812 C 45.3125 67.3437 46.875 66.7187 46.875 66.7187 C 46.875 66.7187 39.2188 65.3125 40.1563 71.7187 z "
       transform="matrix(1.164757,0,0,1.164757,-10.7657,-8.169355)"
       style="fill-rule:evenodd;stroke-width:1;"
       id="path568" />
    <path
       d="M 28.5938 29.1406 C 28.5938 32.0299 27.1588 34.3749 25.3906 34.3749 C 23.6225 34.3749 22.1875 32.0299 22.1875 29.1406 C 22.1875 26.2512 23.6225 23.9062 25.3906 23.9062 C 27.1588 23.9062 28.5938 26.2512 28.5938 29.1406 z "
       transform="matrix(0.973815,-0.639018,0.639018,0.973815,-23.62893,13.07393)"
       style="fill:#476f93;fill-rule:evenodd;stroke-width:1;"
       id="path582" />
    <path
       d="M 28.5938 29.1406 C 28.5938 32.0299 27.1588 34.3749 25.3906 34.3749 C 23.6225 34.3749 22.1875 32.0299 22.1875 29.1406 C 22.1875 26.2512 23.6225 23.9062 25.3906 23.9062 C 27.1588 23.9062 28.5938 26.2512 28.5938 29.1406 z "
       transform="matrix(1.710329,-8.44919e-2,8.449188e-2,1.710329,-10.51886,-31.204)"
       style="fill-rule:evenodd;stroke-width:1;"
       id="path581" />
    <path
       d="M 28.5938 29.1406 C 28.5938 32.0299 27.1588 34.3749 25.3906 34.3749 C 23.6225 34.3749 22.1875 32.0299 22.1875 29.1406 C 22.1875 26.2512 23.6225 23.9062 25.3906 23.9062 C 27.1588 23.9062 28.5938 26.2512 28.5938 29.1406 z "
       transform="matrix(1.163338,-5.747005e-2,5.747005e-2,1.163338,4.157015,-15.95047)"
       style="fill:#476f93;fill-rule:evenodd;stroke-width:1;"
       id="path580" />
    <path
       d="M 28.5938 29.1406 C 28.5938 32.0299 27.1588 34.3749 25.3906 34.3749 C 23.6225 34.3749 22.1875 32.0299 22.1875 29.1406 C 22.1875 26.2512 23.6225 23.9062 25.3906 23.9062 C 27.1588 23.9062 28.5938 26.2512 28.5938 29.1406 z "
       transform="matrix(2.056255,0.991635,-0.991636,2.056254,33.12909,-73.51795)"
       style="fill-rule:evenodd;stroke-width:1;"
       id="path579" />
    <path
       d="M 28.5938 29.1406 C 28.5938 32.0299 27.1588 34.3749 25.3906 34.3749 C 23.6225 34.3749 22.1875 32.0299 22.1875 29.1406 C 22.1875 26.2512 23.6225 23.9062 25.3906 23.9062 C 27.1588 23.9062 28.5938 26.2512 28.5938 29.1406 z "
       transform="matrix(1.549889,0.747436,-0.747436,1.549887,38.87003,-52.56182)"
       style="fill:#476f93;fill-rule:evenodd;stroke-width:1;"
       id="path578" />
    <path
       d="M 58.9063 24.2187 C 58.9063 24.2187 56.0938 19.9999 57.8126 17.6562 C 59.5313 15.3124 61.7188 15.9374 61.7188 15.9374 C 58.125 17.9687 57.9688 18.9062 59.6876 21.0938 C 60.1563 23.9062 58.9063 24.5312 58.9063 24.2187 z "
       transform="matrix(1.164757,0,0,1.164757,-12.64071,-7.544346)"
       style="fill-rule:evenodd;stroke-width:1;"
       id="path584" />
    <path
       d="M 28.5938 29.1406 C 28.5938 32.0299 27.1588 34.3749 25.3906 34.3749 C 23.6225 34.3749 22.1875 32.0299 22.1875 29.1406 C 22.1875 26.2512 23.6225 23.9062 25.3906 23.9062 C 27.1588 23.9062 28.5938 26.2512 28.5938 29.1406 z "
       transform="matrix(-2.447984e-2,1.881981,1.881981,2.447849e-2,-43.29723,-8.474951)"
       style="fill-rule:evenodd;stroke-width:1;"
       id="path585" />
    <path
       d="M 28.5938 29.1406 C 28.5938 32.0299 27.1588 34.3749 25.3906 34.3749 C 23.6225 34.3749 22.1875 32.0299 22.1875 29.1406 C 22.1875 26.2512 23.6225 23.9062 25.3906 23.9062 C 27.1588 23.9062 28.5938 26.2512 28.5938 29.1406 z "
       transform="matrix(-1.807543e-2,1.38947,1.389471,1.807398e-2,-29.10785,4.2169)"
       style="fill:#476f93;fill-rule:evenodd;stroke-width:1;"
       id="path586" />
    <path
       d="M 58.9063 24.2187 C 58.9063 24.2187 56.0938 19.9999 57.8126 17.6562 C 59.5313 15.3124 61.7188 15.9374 61.7188 15.9374 C 58.125 17.9687 57.9688 18.9062 59.6876 21.0938 C 60.1563 23.9062 58.9063 24.5312 58.9063 24.2187 z "
       transform="matrix(-0.419572,0.841862,0.841862,0.419572,21.98523,-16.79764)"
       style="fill-rule:evenodd;stroke-width:1;"
       id="path587" />
    <path
       d="M 60.9376 10.3124 C 60.9376 10.3124 55.6251 12.6562 55.6251 16.5624 C 55.6251 20.4687 56.7188 13.5937 60.9376 10.3124 z "
       transform="matrix(1.164757,0,0,1.164757,-12.64071,-7.544346)"
       style="fill:url(#linearGradient594);fill-rule:evenodd;stroke-width:1;"
       id="path593" />
    <path
       d="M 21.875 40.3125 C 21.875 40.3125 14.375 37.9687 12.8125 40.1562 C 11.25 42.3437 13.4375 33.7499 21.875 40.3125 z "
       transform="matrix(1.164757,0,0,1.164757,-9.203198,-7.856855)"
       style="fill:url(#linearGradient596);fill-rule:evenodd;stroke-width:1;"
       id="path595" />
    <path
       d="M 35.3125 11.5624 C 35.3125 11.5624 32.1875 14.3749 33.4375 17.8124 C 34.6875 21.2499 33.4375 13.7499 35.3125 11.5624 z "
       transform="translate(-0.3125,0)"
       style="fill:url(#linearGradient629);fill-rule:evenodd;stroke-width:1;"
       id="path628" />
    <path
       d="M 17.1875 20.9374 C 17.1875 20.9374 15.9375 24.6874 18.75 27.1874 C 21.5625 29.6874 17.8125 24.0624 17.1875 20.9374 z "
       transform="translate(-0.3125,0)"
       style="fill:url(#linearGradient631);fill-rule:evenodd;stroke-width:1;"
       id="path630" />
  </g>
  <g
     transform="matrix(0.676529,0,0,0.676529,46.41388,36.20521)"
     style="font-size:12;"
     id="g797">
    <defs
       id="defs799">
      <linearGradient
         x1="0"
         y1="0"
         x2="1"
         y2="0"
         id="linearGradient556"
         gradientUnits="objectBoundingBox"
         spreadMethod="pad">
        <stop
           style="stop-color:#ff8700;stop-opacity:1;"
           offset="0"
           id="stop557" />
        <stop
           style="stop-color:#ffff8d;stop-opacity:0;"
           offset="1"
           id="stop558" />
      </linearGradient>
      <linearGradient
         x1="0"
         y1="0"
         x2="1"
         y2="0"
         id="linearGradient559"
         xlink:href="#linearGradient556"
         gradientUnits="objectBoundingBox"
         spreadMethod="pad" />
    </defs>
    <g
       transform="matrix(0.879515,0,0,0.747904,3.240334,1.906033)"
       id="g622">
      <defs
         id="defs624">
        <linearGradient
           x1="0"
           y1="0"
           x2="1"
           y2="0"
           id="linearGradient625"
           gradientUnits="objectBoundingBox"
           spreadMethod="pad">
          <stop
             style="stop-color:#ff0000;stop-opacity:1;"
             offset="0"
             id="stop626" />
          <stop
             style="stop-color:#ffff8d;stop-opacity:0;"
             offset="1"
             id="stop627" />
        </linearGradient>
        <linearGradient
           x1="0.98450798"
           y1="0.96875602"
           x2="-0.57364303"
           y2="-0.171875"
           id="linearGradient628"
           xlink:href="#linearGradient556" />
      </defs>
      <path
         d="M 60.01725 23.99648 C 59.53549 18.42523 39.28151 -0.155997 34.6921 1.525979 C 26.26824 2.875133 27.80318 12.48977 24.47333 13.67308 C 21.12074 14.2603 -7.972638 17.44191 5.187324 48.65893 C 7.581571 54.25087 9.102327 55.29983 11.60488 57.13311 C 14.0401 58.78143 17.95009 58.8779 21.12059 55.3124 C 24.01675 51.00947 22.76623 46.76743 21.42301 43.20362 C 17.19612 32.53529 24.99563 32.40727 29.30969 30.15509 C 30.31799 33.8884 32.17592 42.69868 34.68069 42.57612 C 37.18548 42.45358 60.64089 35.12471 60.01725 23.99648 z "
         style="fill:#0d3c07;fill-rule:evenodd;"
         id="path811" />
      <path
         d="M 56.43394 23.6407 C 56.27621 19.46667 39.11294 4.640965 35.3464 6.096892 C 31.57967 7.552896 33.49308 12.85851 31.87806 15.80547 C -4.80765 16.56439 4.758002 57.5538 16.64254 52.80007 C 23.15131 50.27578 12.05925 39.66178 17.21876 32.46884 C 21.59482 26.19341 33.14937 25.01374 33.38684 26.55734 C 33.86179 29.64459 34.44591 38.87531 36.46869 38.67948 C 38.4915 38.48365 57.31595 28.02613 56.43394 23.6407 z "
         style="fill:#2aaf18;fill-rule:evenodd;"
         id="path812" />
      <path
         d="M 6.835245 41.70574 C 8.271465 32.53362 10.38564 27.15574 15.38294 23.37504 C 20.88176 19.00195 30.21643 18.33108 30.49849 17.5357 C 30.78051 16.74034 23.72856 18.85646 18.28161 20.48563 C 8.069523 23.49743 5.940525 35.37665 6.835245 41.70574 z "
         style="fill:#ffffff;fill-rule:evenodd;"
         id="path813" />
      <path
         d="M 48.10932 19.7236 C 46.94802 18.36876 38.77247 11.53838 36.54244 11.06304 C 34.31254 10.58784 35.79821 14.70468 35.79821 14.70468 C 35.79821 14.70468 47.19147 18.18673 48.10932 19.7236 z "
         style="fill:#ffffff;fill-rule:evenodd;"
         id="path589" />
      <path
         d="M 48.89974 35.68601 C 48.89974 35.68601 58.05552 31.86359 58.04005 31.98362 C 58.02458 32.10363 56.33631 30.05579 56.33631 30.05579 L 53.96308 30.48197 L 48.70187 32.48812 L 48.89974 35.68601 z "
         style="fill:none;fill-rule:evenodd;stroke-width:1;"
         id="path576" />
      <path
         d="M 56.32258 23.6129 C 57.29033 29.41935 36.19355 39.09677 36.19355 39.09677 C 34.25806 37.54839 33.09677 27.09678 31.16129 25.74193 C 27.67742 27.29032 16.83871 30.38709 16.25807 34.45161 C 15.67741 38.51613 18.58065 46.64516 18.96775 48.58064 C 19.74194 51.48388 17.22581 54.19355 14.70968 53.03226 C 12.19355 51.87097 11.80645 49.54838 11.80645 49.54838 C 11.80645 49.54838 14.51613 49.54839 14.90323 47.41935 C 15.29032 45.29032 9.67742 34.83871 12.58065 30.77419 C 15.48387 26.70968 27.09677 21.09678 34.25806 21.67742 L 37.16129 33.67741 C 37.16129 33.67741 40.06451 33.48388 56.32258 23.6129 z "
         style="fill:#1f8b10;fill-opacity:0.9899;fill-rule:evenodd;stroke-width:1;"
         id="path615" />
    </g>
    <g
       transform="matrix(-0.85655,-0.248384,0.26059,-0.816429,51.42725,83.10669)"
       id="g635">
      <defs
         id="defs637">
        <linearGradient
           x1="0"
           y1="0"
           x2="1"
           y2="0"
           id="linearGradient638"
           gradientUnits="objectBoundingBox"
           spreadMethod="pad">
          <stop
             style="stop-color:#ff0000;stop-opacity:1;"
             offset="0"
             id="stop639" />
          <stop
             style="stop-color:#ffff8d;stop-opacity:0;"
             offset="1"
             id="stop640" />
        </linearGradient>
        <linearGradient
           x1="0.98450798"
           y1="0.96875602"
           x2="-0.57364303"
           y2="-0.171875"
           id="linearGradient641"
           xlink:href="#linearGradient556" />
      </defs>
      <path
         d="M 60.01725 23.99648 C 59.53549 18.42523 39.28151 -0.155997 34.6921 1.525979 C 26.26824 2.875133 27.80318 12.48977 24.47333 13.67308 C 21.12074 14.2603 -7.972638 17.44191 5.187324 48.65893 C 7.581571 54.25087 9.102327 55.29983 11.60488 57.13311 C 14.0401 58.78143 17.95009 58.8779 21.12059 55.3124 C 24.01675 51.00947 22.76623 46.76743 21.42301 43.20362 C 17.19612 32.53529 24.99563 32.40727 29.30969 30.15509 C 30.31799 33.8884 32.17592 42.69868 34.68069 42.57612 C 37.18548 42.45358 60.64089 35.12471 60.01725 23.99648 z "
         style="fill:#0d3c07;fill-rule:evenodd;"
         id="path642" />
      <path
         d="M 56.43394 23.6407 C 56.27621 19.46667 39.11294 4.640965 35.3464 6.096892 C 31.57967 7.552896 33.49308 12.85851 31.87806 15.80547 C -4.80765 16.56439 4.758002 57.5538 16.64254 52.80007 C 23.15131 50.27578 12.05925 39.66178 17.21876 32.46884 C 21.59482 26.19341 33.14937 25.01374 33.38684 26.55734 C 33.86179 29.64459 34.44591 38.87531 36.46869 38.67948 C 38.4915 38.48365 57.31595 28.02613 56.43394 23.6407 z "
         style="fill:#2aaf18;fill-rule:evenodd;"
         id="path643" />
      <path
         d="M 6.835245 41.70574 C 8.271465 32.53362 10.38564 27.15574 15.38294 23.37504 C 20.88176 19.00195 30.21643 18.33108 30.49849 17.5357 C 30.78051 16.74034 23.72856 18.85646 18.28161 20.48563 C 8.069523 23.49743 5.940525 35.37665 6.835245 41.70574 z "
         style="fill:#ffffff;fill-rule:evenodd;"
         id="path644" />
      <path
         d="M 48.10932 19.7236 C 46.94802 18.36876 38.77247 11.53838 36.54244 11.06304 C 34.31254 10.58784 35.79821 14.70468 35.79821 14.70468 C 35.79821 14.70468 47.19147 18.18673 48.10932 19.7236 z "
         style="fill:#ffffff;fill-rule:evenodd;"
         id="path645" />
      <path
         d="M 48.89974 35.68601 C 48.89974 35.68601 58.05552 31.86359 58.04005 31.98362 C 58.02458 32.10363 56.33631 30.05579 56.33631 30.05579 L 53.96308 30.48197 L 48.70187 32.48812 L 48.89974 35.68601 z "
         style="fill:none;fill-rule:evenodd;stroke-width:1;"
         id="path646" />
      <path
         d="M 56.32258 23.6129 C 57.29033 29.41935 36.19355 39.09677 36.19355 39.09677 C 34.25806 37.54839 33.09677 27.09678 31.16129 25.74193 C 27.67742 27.29032 16.83871 30.38709 16.25807 34.45161 C 15.67741 38.51613 18.58065 46.64516 18.96775 48.58064 C 19.74194 51.48388 17.22581 54.19355 14.70968 53.03226 C 12.19355 51.87097 11.80645 49.54838 11.80645 49.54838 C 11.80645 49.54838 14.51613 49.54839 14.90323 47.41935 C 15.29032 45.29032 9.67742 34.83871 12.58065 30.77419 C 15.48387 26.70968 27.09677 21.09678 34.25806 21.67742 L 37.16129 33.67741 C 37.16129 33.67741 40.06451 33.48388 56.32258 23.6129 z "
         style="fill:#1f8b10;fill-opacity:0.9899;fill-rule:evenodd;stroke-width:1;"
         id="path647" />
    </g>
  </g>
</svg>
