<?xml version="1.0" encoding="UTF-8" standalone="no"?>
<!DOCTYPE svg PUBLIC "-//W3C//DTD SVG 20010904//EN"
"http://www.w3.org/TR/2001/REC-SVG-20010904/DTD/svg10.dtd">
<!-- Created with Sodipodi ("http://www.sodipodi.com/") -->
<svg
   xmlns="http://www.w3.org/2000/svg"
   xmlns:sodipodi="http://sodipodi.sourceforge.net/DTD/sodipodi-0.dtd"
   xmlns:xlink="http://www.w3.org/1999/xlink"
   id="svg604"
   sodipodi:version="0.34"
   width="72pt"
   height="72pt"
   sodipodi:docbase="/home/zeus/.themes/Zeus-Test/gtk-2.0/"
   sodipodi:docname="/home/zeus/.themes/Zeus-Test/gtk-2.0/stock_cut.svg">
  <defs
     id="defs606">
    <linearGradient
       id="linearGradient612">
      <stop
         style="stop-color:#7fa8e3;stop-opacity:0.741176;"
         offset="0.000000"
         id="stop613" />
      <stop
         style="stop-color:#ffffff;stop-opacity:0;"
         offset="1.000000"
         id="stop614" />
    </linearGradient>
    <linearGradient
       xlink:href="#linearGradient612"
       id="linearGradient615"
       x1="50.6438866"
       y1="5.36792946"
       x2="35.7520943"
       y2="68.0443573"
       gradientUnits="userSpaceOnUse"
       spreadMethod="pad" />
  </defs>
  <sodipodi:namedview
     id="base" />
  <path
     style="fill:#3d4e67;fill-rule:evenodd;stroke:none;stroke-opacity:1;stroke-width:1pt;stroke-linejoin:miter;stroke-linecap:butt;fill-opacity:1;"
     d="M 19.25746 88.85295 C 15.64972 88.80008 9.601385 86.59507 9.073274 80.6779 C 7.210922 74.69947 0.736836 18.19296 3.860865 14.25714 C 5.475081 11.15851 8.990163 8.883846 15.24414 8.095297 C 20.36134 7.311063 66.90826 1.182168 70.34052 2.133443 C 73.77291 3.084782 76.47668 3.88922 76.72359 8.66019 C 76.46973 11.25486 85.11526 64.17834 86.4416 67.29918 C 87.07447 70.95469 86.03559 76.06303 80.74295 77.74577 C 75.4504 79.42848 23.4355 88.13875 19.25746 88.85295 z "
     id="path609"
     sodipodi:nodetypes="ccccccccc" />
  <path
     style="fill:#ffffff;fill-rule:evenodd;stroke:none;stroke-opacity:1;stroke-width:1pt;stroke-linejoin:miter;stroke-linecap:butt;fill-opacity:1;"
     d="M 23.42546 82.58544 C 19.92772 83.04761 15.06917 84.01377 14.48885 79.22751 C 12.07226 67.89723 6.531459 22.99269 10.47954 15.69523 C 11.36134 13.97925 16.14898 11.65005 27.02442 10.67769 C 39.38322 9.43358 64.74162 7.541681 67.41014 7.664577 C 70.07854 7.787504 70.89489 7.485106 71.47531 12.27148 C 71.23959 17.36016 79.28968 57.1673 79.76524 64.21525 C 80.13527 69.2185 80.7721 71.34428 77.50699 72.55383 "
     id="path608"
     sodipodi:nodetypes="cccccccs" />
  <path
     style="fill:url(#linearGradient615);fill-rule:evenodd;stroke:none;stroke-opacity:1;stroke-width:1pt;stroke-linejoin:miter;stroke-linecap:butt;fill-opacity:1;"
     d="M 11.3546 22.47119 C 11.3546 22.47119 11.66918 15.68081 20.72418 14.32858 C 29.77917 12.97639 65.6409 8.367471 66.49537 10.72046 C 67.3498 13.07345 68.40767 28.36493 68.6715 29.60197 C 68.93534 30.83895 38.57783 41.41738 30.24181 51.51289 C 21.90577 61.60837 16.06766 69.77748 16.06766 69.77748 C 16.06766 69.77748 11.29419 34.17267 11.3546 22.47119 z "
     id="path636" />
  <path
     style="font-size:12;fill:none;fill-rule:evenodd;stroke:#000000;stroke-width:5.2805;stroke-linejoin:round;stroke-dasharray:10.56101,10.56101;stroke-dashoffset:38.019;"
     d="M 11.19147 52.33655 L 77.40758 40.98741 "
     id="path736" />
</svg>
