<?xml version="1.0" encoding="UTF-8" standalone="no"?>
<!DOCTYPE svg PUBLIC "-//W3C//DTD SVG 20010904//EN"
"http://www.w3.org/TR/2001/REC-SVG-20010904/DTD/svg10.dtd">
<!-- Created with Sodipodi ("http://www.sodipodi.com/") -->
<svg
   version="1.0"
   x="0"
   y="0"
   width="24.000000pt"
   height="24.000000pt"
   id="svg604"
   sodipodi:version="0.32"
   sodipodi:docname="stock_replace.svg"
   sodipodi:docbase="/home/zeus/.icons/gartoon/scalable/stock-gar"
   inkscape:version="0.40"
   xmlns="http://www.w3.org/2000/svg"
   xmlns:inkscape="http://www.inkscape.org/namespaces/inkscape"
   xmlns:sodipodi="http://sodipodi.sourceforge.net/DTD/sodipodi-0.dtd"
   xmlns:xlink="http://www.w3.org/1999/xlink"
   xmlns:rdf="http://www.w3.org/1999/02/22-rdf-syntax-ns#"
   xmlns:cc="http://web.resource.org/cc/"
   xmlns:dc="http://purl.org/dc/elements/1.1/">
  <metadata
     id="metadata73">
    <rdf:RDF
       id="RDF74">
      <cc:Work
         rdf:about=""
         id="Work75">
        <dc:format
           id="format76">image/svg+xml</dc:format>
        <dc:type
           id="type78"
           rdf:resource="http://purl.org/dc/dcmitype/StillImage" />
      </cc:Work>
    </rdf:RDF>
  </metadata>
  <sodipodi:namedview
     id="base"
     inkscape:zoom="5.0416667"
     inkscape:cx="24.297521"
     inkscape:cy="4.6611570"
     inkscape:window-width="938"
     inkscape:window-height="739"
     inkscape:window-x="5"
     inkscape:window-y="32"
     inkscape:current-layer="svg604" />
  <defs
     id="defs606">
    <linearGradient
       id="linearGradient612">
      <stop
         style="stop-color:#7fa8e3;stop-opacity:0.7412;"
         offset="0"
         id="stop613" />
      <stop
         style="stop-color:#ffffff;stop-opacity:0;"
         offset="1"
         id="stop614" />
    </linearGradient>
    <linearGradient
       x1="50.6438866"
       y1="5.36792946"
       x2="35.7520943"
       y2="68.0443573"
       id="linearGradient615"
       xlink:href="#linearGradient612"
       gradientUnits="userSpaceOnUse"
       spreadMethod="pad"
       gradientTransform="matrix(0.330677,0.000000,0.000000,0.330677,1.299542,0.859259)" />
    <linearGradient
       inkscape:collect="always"
       xlink:href="#linearGradient626"
       id="linearGradient1129"
       gradientUnits="userSpaceOnUse"
       x1="32.481542"
       y1="61.964895"
       x2="30.822360"
       y2="59.847876"
       gradientTransform="scale(0.933541,1.071190)" />
    <linearGradient
       inkscape:collect="always"
       xlink:href="#linearGradient619"
       id="linearGradient1130"
       gradientUnits="userSpaceOnUse"
       gradientTransform="scale(1.004516,0.995504)"
       spreadMethod="pad"
       x1="66.3316956"
       y1="23.2124691"
       x2="63.4654961"
       y2="20.9627991" />
    <linearGradient
       inkscape:collect="always"
       xlink:href="#linearGradient626"
       id="linearGradient1131"
       gradientUnits="userSpaceOnUse"
       gradientTransform="scale(0.912664,1.095694)"
       spreadMethod="pad"
       x1="53.8806496"
       y1="44.2428169"
       x2="46.6206779"
       y2="37.0230942" />
    <linearGradient
       inkscape:collect="always"
       xlink:href="#linearGradient628"
       id="linearGradient1132"
       x1="20.058980"
       y1="79.819469"
       x2="19.048738"
       y2="78.607083"
       gradientTransform="scale(1.096664,0.911856)"
       gradientUnits="userSpaceOnUse" />
  </defs>
  <path
     d="M 7.4347583,29.088826 C 6.3148225,29.072279 4.4372632,28.382143 4.2733226,26.530162 C 3.6952032,24.659005 1.6854797,6.9733581 2.6552595,5.7415082 C 3.1563514,4.7716864 4.2475235,4.0597511 6.1889141,3.8129476 C 7.7774319,3.5674949 22.226779,1.6492468 23.292245,1.9469811 C 24.357745,2.2447353 25.197065,2.4965118 25.273713,3.9897502 C 25.194906,4.8018408 27.878701,21.366057 28.290430,22.342833 C 28.486892,23.486948 28.164396,25.085780 26.521425,25.612452 C 24.878485,26.139114 8.7317251,28.865292 7.4347583,29.088826 z "
     style="font-size:12.000000;fill:#3d4e67;fill-rule:evenodd;stroke-width:1.0000000"
     id="path609" />
  <path
     d="M 8.7286101,27.127192 C 7.6428167,27.271843 6.1346037,27.574237 5.9544544,26.076212 C 5.2042879,22.530013 3.4842798,8.4755991 4.7098634,6.1916087 C 4.9835943,5.6545336 6.4698007,4.9255271 9.8458143,4.6211954 C 13.682305,4.2318104 21.554205,3.6396747 22.382580,3.6781390 C 23.210919,3.7166132 23.464336,3.6219676 23.644512,5.1200278 C 23.571336,6.7127056 26.070293,19.171713 26.217917,21.377611 C 26.332788,22.943550 26.530473,23.608885 25.516899,23.987454"
     style="font-size:12.000000;fill:#ffffff;fill-rule:evenodd;stroke-width:1.0000000"
     id="path608" />
  <path
     d="M 4.9815044,8.3123771 C 4.9815044,8.3123771 5.0791565,6.1870950 7.8900670,5.7638685 C 10.700964,5.3406520 21.833359,3.8981339 22.098612,4.6345845 C 22.363847,5.3710313 22.692236,10.157024 22.774138,10.544197 C 22.856043,10.931356 13.432294,14.242237 10.844577,17.401971 C 8.2568602,20.561699 6.4445602,23.118501 6.4445602,23.118501 C 6.4445602,23.118501 4.9627517,11.974754 4.9815044,8.3123771 z "
     style="font-size:12.000000;fill:url(#linearGradient615);fill-rule:evenodd;stroke-width:1.0000000"
     id="path636" />
  <g
     transform="matrix(-0.315010,0.000000,0.000000,0.315010,21.21909,0.661407)"
     style="font-size:12.000000"
     id="g721">
    <defs
       id="defs722">
      <linearGradient
         id="linearGradient621">
        <stop
           style="stop-color:#666565;stop-opacity:1;"
           offset="0"
           id="stop623" />
        <stop
           style="stop-color:#ffffff;stop-opacity:1;"
           offset="1"
           id="stop622" />
      </linearGradient>
      <linearGradient
         id="linearGradient610">
        <stop
           style="stop-color:#666565;stop-opacity:1;"
           offset="0"
           id="stop612" />
        <stop
           style="stop-color:#ffffff;stop-opacity:1;"
           offset="1"
           id="stop611" />
      </linearGradient>
      <linearGradient
         id="linearGradient729">
        <stop
           style="stop-color:#7fa8e3;stop-opacity:0.7412;"
           offset="0"
           id="stop730" />
        <stop
           style="stop-color:#ffffff;stop-opacity:0;"
           offset="1"
           id="stop731" />
      </linearGradient>
      <linearGradient
         x1="0.0076835002"
         y1="0.96245670"
         x2="1.0219058"
         y2="0.077617466"
         id="linearGradient732"
         xlink:href="#linearGradient610"
         gradientUnits="objectBoundingBox"
         gradientTransform="scale(0.993504,1.006539)" />
      <defs
         id="defs550">
        <linearGradient
           x1="0.0000000"
           y1="0.0000000"
           x2="1.0000000"
           y2="0.0000000"
           id="linearGradient554"
           xlink:href="#linearGradient610"
           gradientUnits="objectBoundingBox"
           spreadMethod="pad" />
        <linearGradient
           x1="12.923600"
           y1="79.960350"
           x2="8.3357515"
           y2="72.290230"
           id="linearGradient557"
           xlink:href="#linearGradient554"
           gradientUnits="userSpaceOnUse"
           gradientTransform="scale(1.122498,0.890870)"
           spreadMethod="pad" />
        <linearGradient
           x1="7.7983670"
           y1="68.656029"
           x2="12.994576"
           y2="78.428917"
           id="linearGradient559"
           xlink:href="#linearGradient554"
           gradientUnits="userSpaceOnUse"
           gradientTransform="scale(1.122498,0.890870)"
           spreadMethod="pad" />
        <linearGradient
           id="linearGradient563"
           xlink:href="#linearGradient554" />
      </defs>
      <defs
         id="defs573">
        <linearGradient
           x1="0.0000000"
           y1="0.0000000"
           x2="1.0000000"
           y2="0.0000000"
           id="linearGradient604"
           xlink:href="#linearGradient621"
           gradientUnits="objectBoundingBox"
           spreadMethod="pad" />
        <linearGradient
           id="linearGradient600">
          <stop
             style="stop-color:#000000;stop-opacity:1;"
             offset="0"
             id="stop601" />
          <stop
             style="stop-color:#ffffff;stop-opacity:1;"
             offset="1"
             id="stop602" />
        </linearGradient>
        <linearGradient
           x1="61.046890"
           y1="28.657213"
           x2="79.628151"
           y2="14.154770"
           id="linearGradient603"
           xlink:href="#linearGradient604"
           gradientUnits="userSpaceOnUse"
           gradientTransform="scale(0.994399,1.005632)"
           spreadMethod="pad" />
      </defs>
      <linearGradient
         x1="26.441227"
         y1="54.839890"
         x2="29.670187"
         y2="59.914223"
         id="linearGradient613"
         xlink:href="#linearGradient610"
         gradientUnits="userSpaceOnUse"
         gradientTransform="scale(1.122498,0.890870)" />
      <radialGradient
         cx="0.062015511"
         cy="0.11718750"
         r="0.76277786"
         fx="0.062015511"
         fy="0.11718750"
         id="radialGradient614"
         xlink:href="#linearGradient612"
         spreadMethod="repeat" />
    </defs>
    <path
       d="M 50.084090,57.909150 L 38.755550,48.417210 C 38.660950,48.337950 30.558020,51.380890 26.292320,51.339650 C 16.376810,51.242600 2.5217280,45.019870 1.3892580,27.984960 C 0.49422200,14.409310 9.5740610,1.7745690 26.120280,1.7485790 C 39.715790,1.7274150 52.274560,11.559970 50.937320,27.726900 C 50.298830,35.689300 48.080440,38.455520 48.720340,39.184130 L 58.963190,50.846850 C 60.009770,52.038510 59.424820,56.096270 57.573350,57.627770 C 55.575960,59.241340 51.381560,58.996270 50.084090,57.909150 z "
       style="fill-rule:evenodd;stroke:#000000;stroke-width:1.1010700"
       id="path634" />
    <path
       d="M 47.762390,26.152830 C 47.762390,29.174580 47.149280,32.054000 46.040750,34.673400 C 45.486490,35.983100 44.916020,37.308280 44.021120,38.392760 L 56.388240,54.312140 L 54.827200,56.462400 L 38.105580,44.308300 C 37.021100,45.203200 35.695920,45.773670 34.386220,46.327930 C 31.766820,47.436460 28.887400,48.049570 25.865650,48.049570 C 13.778660,48.049570 3.9689200,38.239830 3.9689200,26.152830 C 3.9689200,14.065840 13.778660,4.2561010 25.865650,4.2561010 C 37.952650,4.2561010 47.762390,14.065840 47.762390,26.152830 z "
       style="fill:#efe16b;fill-rule:evenodd;stroke-width:1.0000000"
       id="path620" />
    <path
       d="M 44.247970,38.380650 L 56.166310,51.683460 C 58.094720,54.430010 55.001810,57.878820 51.794440,56.206420 L 38.143890,44.281930 C 38.404590,41.516090 42.240140,38.873110 44.247970,38.380650 z "
       style="fill:#ffc83d;fill-rule:evenodd"
       id="path562" />
    <path
       d="M 43.867920,38.779120 L 55.762940,51.895780 C 56.597030,54.012390 55.228320,50.452810 53.469320,54.134850 L 41.294430,41.117020 C 41.316220,40.261890 41.776510,39.196720 43.867920,38.779120 z "
       style="fill:#ff933d;fill-rule:evenodd"
       id="path567" />
    <path
       d="M 40.046150,41.888250 L 52.699420,54.368420 C 53.216550,54.516170 52.093180,54.770550 52.279660,56.069760 C 51.838150,55.448200 38.857720,43.569690 38.857720,43.569690 L 40.046150,41.888250 z "
       style="fill:#ffffff;fill-rule:evenodd"
       id="path568" />
    <ellipse
       cx="29.499611"
       cy="28.953592"
       rx="18.451067"
       ry="18.451067"
       transform="matrix(1.035494,0.000000,0.000000,1.035494,-4.681022,-3.828444)"
       style="fill:#bae6ff;fill-rule:evenodd;stroke-width:1.0000000"
       id="path611"
       sodipodi:cx="29.499611"
       sodipodi:cy="28.953592"
       sodipodi:rx="18.451067"
       sodipodi:ry="18.451067" />
    <path
       d="M 37.756020,11.254950 C 41.736890,14.095850 44.634770,18.454310 45.503930,23.655440 C 46.373080,28.856560 45.049750,33.920430 42.208850,37.901290 C 39.367960,41.882170 35.009490,44.780040 29.808370,45.649200 C 24.607240,46.518350 21.185690,45.468740 15.562510,42.354130 M 15.562510,42.354130 C 42.907650,34.124200 36.183590,27.440040 37.756020,11.254950"
       style="fill:#437caf;fill-rule:evenodd;stroke-width:1.0000000"
       id="path610" />
    <path
       d="M 44.197080,38.171700 C 42.152180,38.941350 42.780750,38.825900 40.902270,40.039320 C 40.797730,40.210320 39.667720,40.098500 38.194620,44.359110 L 41.327000,47.165800 C 42.176570,46.039130 43.421790,43.990520 44.160410,43.474040 C 45.231430,42.679770 45.761480,42.273810 47.331760,41.645950 L 44.197080,38.171700 z "
       style="fill:#ff0000;fill-rule:evenodd;stroke-width:1.0000000"
       id="path651" />
    <path
       d="M 41.763810,44.045140 L 40.779060,45.452580 L 38.885670,43.878260 L 39.773220,42.491450 L 41.763810,44.045140 z "
       style="fill:#ffffff;fill-rule:evenodd;stroke-width:1.0000000"
       id="path652" />
  </g>
  <g
     id="g702"
     transform="matrix(0.205300,0.000000,0.000000,0.205300,14.11737,9.813765)">
    <defs
       id="defs611">
      <linearGradient
         id="linearGradient628">
        <stop
           style="stop-color:#354782;stop-opacity:0.8118;"
           offset="0"
           id="stop629" />
        <stop
           style="stop-color:#5777ad;stop-opacity:0;"
           offset="1"
           id="stop630" />
      </linearGradient>
      <linearGradient
         id="linearGradient626">
        <stop
           style="stop-color:#b5772d;stop-opacity:1;"
           offset="0.000000"
           id="stop627" />
        <stop
           style="stop-color:#ffffff;stop-opacity:0;"
           offset="1.000000"
           id="stop628" />
      </linearGradient>
      <linearGradient
         id="linearGradient619">
        <stop
           style="stop-color:#770000;stop-opacity:1;"
           offset="0.000000"
           id="stop620" />
        <stop
           style="stop-color:#ffffff;stop-opacity:0;"
           offset="1.000000"
           id="stop621" />
      </linearGradient>
      <linearGradient
         xlink:href="#linearGradient619"
         id="linearGradient622"
         x1="66.331696"
         y1="23.212469"
         x2="63.465496"
         y2="20.962799"
         gradientUnits="userSpaceOnUse"
         spreadMethod="pad"
         gradientTransform="scale(1.004516,0.995504)" />
      <linearGradient
         xlink:href="#linearGradient626"
         id="linearGradient625"
         x1="53.880650"
         y1="44.242817"
         x2="46.620678"
         y2="37.023094"
         gradientUnits="userSpaceOnUse"
         spreadMethod="pad"
         gradientTransform="scale(0.912664,1.095694)" />
      <linearGradient
         xlink:href="#linearGradient626"
         id="linearGradient624"
         x1="0.52009249"
         y1="0.46269390"
         x2="0.35632125"
         y2="0.25373143"
         gradientUnits="objectBoundingBox" />
      <linearGradient
         xlink:href="#linearGradient628"
         id="linearGradient627"
         x1="0.59769917"
         y1="0.53448892"
         x2="0.51149422"
         y2="0.43103477" />
    </defs>
    <sodipodi:namedview
       id="namedview717" />
    <path
       style="fill:#000000;fill-opacity:0.28318599;fill-rule:evenodd;stroke:none;stroke-width:1.0000000pt;stroke-linecap:butt;stroke-linejoin:miter;stroke-opacity:1.0000000"
       d="M 9.3368500,82.115600 C 17.912900,79.764100 30.911200,77.563700 40.109700,71.892400 C 56.985100,62.071400 66.011800,41.633200 76.455100,25.587700 C 77.285000,12.308600 64.112800,5.9687200 59.133100,8.8734500 C 46.476600,25.472200 37.554800,43.523500 23.445800,55.972500 C 19.088600,66.554200 9.1293400,82.738000 9.3368500,82.115600 z "
       id="path632"
       sodipodi:nodetypes="cccccc"
       transform="translate(3.814559,2.934275)" />
    <path
       style="fill:#000000;fill-opacity:1.0000000;fill-rule:evenodd;stroke:none;stroke-width:1.0000000pt;stroke-linecap:butt;stroke-linejoin:miter;stroke-opacity:1.0000000"
       d="M 8.3298940,82.417690 C 16.905940,80.066180 27.792790,75.877920 36.991290,70.206730 C 53.866680,60.385720 64.251200,38.405500 74.694500,22.360000 C 77.840400,8.2753470 62.501670,5.9687330 57.421270,10.685970 C 40.535560,38.562630 28.207970,50.576630 24.452750,56.375280 C 18.013130,66.059410 13.056470,75.286520 8.3298940,82.417690 z "
       id="path617"
       sodipodi:nodetypes="ccccsc" />
    <path
       style="fill:#be6d6d;fill-opacity:1.0000000;fill-rule:evenodd;stroke:none;stroke-width:1.0000000pt;stroke-linecap:butt;stroke-linejoin:miter;stroke-opacity:1.0000000"
       d="M 72.399980,19.799950 C 70.670980,22.289740 68.539100,25.887200 66.810100,28.377000 C 64.527800,22.982400 61.830500,20.285100 54.983500,19.662700 C 57.196700,16.965400 58.805620,14.570180 60.716740,11.772190 C 65.645460,10.142730 72.350160,13.706580 72.399980,19.799950 z "
       id="path613"
       sodipodi:nodetypes="ccccc" />
    <path
       style="fill:#ffbc24;fill-opacity:1.0000000;fill-rule:evenodd;stroke:none;stroke-width:1.0000000pt;stroke-linecap:butt;stroke-linejoin:miter;stroke-opacity:1.0000000"
       d="M 54.776000,20.907600 C 60.526620,20.561800 64.759730,24.502000 65.980100,29.207000 C 57.542400,42.831800 50.557100,56.249200 36.309800,66.969200 C 36.309800,66.969200 34.705070,57.514430 27.595500,58.047400 C 34.027500,50.785400 48.966400,30.037000 54.776000,20.907600 z "
       id="path614"
       sodipodi:nodetypes="ccccc" />
    <path
       style="fill:#e9dbb9;fill-opacity:1.0000000;fill-rule:evenodd;stroke:none;stroke-width:1.0000000pt;stroke-linecap:butt;stroke-linejoin:miter;stroke-opacity:1.0000000"
       d="M 27.076700,58.669800 C 31.745100,58.427700 35.687300,63.995300 34.649900,67.384200 C 32.644200,68.905700 28.966490,70.569700 26.960780,72.091200 C 26.614980,69.324800 25.244000,67.038400 21.370900,67.384200 C 23.099900,64.410200 25.347700,61.643800 27.076700,58.669800 z "
       id="path615"
       sodipodi:nodetypes="ccccc" />
    <path
       style="fill:url(#linearGradient1129);fill-opacity:1.0000000;fill-rule:evenodd;stroke:none;stroke-width:1.0000000pt;stroke-linecap:butt;stroke-linejoin:miter;stroke-opacity:1.0000000"
       d="M 34.753800,67.280500 C 35.195580,65.101900 34.228890,63.118480 32.802880,61.354890 C 31.210180,64.245370 28.716280,66.059740 25.573480,68.136790 C 24.847290,68.759190 26.675980,70.962320 26.883480,72.207220 C 28.750880,71.066020 34.753800,67.902900 34.753800,67.280500 z "
       id="path631"
       sodipodi:nodetypes="ccccc" />
    <path
       style="fill:#586f93;fill-opacity:1.0000000;fill-rule:evenodd;stroke:none;stroke-width:1.0000000pt;stroke-linecap:butt;stroke-linejoin:miter;stroke-opacity:1.0000000"
       d="M 21.482790,67.182810 C 24.927400,66.431040 26.963260,69.673420 27.168280,72.097410 L 14.316400,77.758400 L 21.482790,67.182810 z "
       id="path616"
       sodipodi:nodetypes="cccc" />
    <path
       style="fill:url(#linearGradient1130);fill-opacity:1.0000000;fill-rule:evenodd;stroke:none;stroke-width:1.0000000pt;stroke-linecap:butt;stroke-linejoin:miter;stroke-opacity:1.0000000"
       d="M 72.500690,19.598560 C 70.771690,22.088360 68.639790,25.887200 66.910790,28.377000 C 64.628490,22.982400 61.931190,20.285100 55.084190,19.662700 C 57.297390,16.965400 59.510490,14.268100 61.723690,11.570790 C 67.256580,10.948290 71.947400,14.411460 72.500690,19.598560 z "
       id="path618"
       sodipodi:nodetypes="ccccc" />
    <path
       style="fill:#ffffff;fill-opacity:1.0000000;fill-rule:evenodd;stroke:none;stroke-width:1.0000000pt;stroke-linecap:butt;stroke-linejoin:miter;stroke-opacity:1.0000000"
       d="M 61.558850,12.293900 C 59.995610,14.542660 58.432370,16.791430 56.869130,19.040200 C 58.105920,19.251730 59.040620,19.765360 60.277400,19.976900 C 61.773510,17.765770 63.773110,15.252570 65.269220,13.041420 C 64.703710,12.087380 62.728510,11.838210 61.558850,12.293900 z "
       id="path623"
       sodipodi:nodetypes="ccccc" />
    <path
       style="fill:url(#linearGradient1131);fill-opacity:1.0000000;fill-rule:evenodd;stroke:none;stroke-width:1.0000000pt;stroke-linecap:butt;stroke-linejoin:miter;stroke-opacity:1.0000000"
       d="M 54.764090,20.987690 C 60.158690,20.641890 64.463010,23.727660 65.968180,29.287090 C 57.530490,42.911890 50.545190,56.329290 36.297890,67.049290 C 36.297890,67.049290 34.684750,57.351240 27.583590,58.127490 C 34.015590,50.865490 48.954490,30.117090 54.764090,20.987690 z "
       id="path624"
       sodipodi:nodetypes="ccccc" />
    <path
       style="fill:#ffffff;fill-opacity:1.0000000;fill-rule:evenodd;stroke:none;stroke-width:1.0000000pt;stroke-linecap:butt;stroke-linejoin:miter;stroke-opacity:1.0000000"
       d="M 29.314290,57.319240 C 31.128810,57.368020 32.231300,58.057510 33.120190,59.174330 C 42.249590,48.315910 47.538540,35.541260 59.780140,23.645460 C 59.458770,22.030230 57.286230,21.625550 55.540810,21.932790 C 48.209710,34.658490 39.342690,48.535730 29.314290,57.319240 z "
       id="path630"
       sodipodi:nodetypes="ccccc" />
    <path
       style="fill:url(#linearGradient1132);fill-opacity:1.0000000;fill-rule:evenodd;stroke:none;stroke-width:1.0000000pt;stroke-linecap:butt;stroke-linejoin:miter;stroke-opacity:1.0000000"
       d="M 21.482790,67.182810 C 24.927400,66.431040 26.963260,69.673420 27.168280,72.097410 L 14.316400,77.758400 L 21.482790,67.182810 z "
       id="path625"
       sodipodi:nodetypes="cccc" />
  </g>
</svg>
