<?xml version="1.0" encoding="UTF-8" standalone="no"?>
<!DOCTYPE svg PUBLIC "-//W3C//DTD SVG 20010904//EN"
"http://www.w3.org/TR/2001/REC-SVG-20010904/DTD/svg10.dtd">
<!-- Created with Sodipodi ("http://www.sodipodi.com/") -->
<svg
   id="svg848"
   sodipodi:version="0.32"
   width="24.000000pt"
   height="24.000000pt"
   sodipodi:docbase="/home/zeus/.icons/gartoon/scalable/stock-gar"
   sodipodi:docname="stock_mail.svg"
   inkscape:version="0.40"
   xmlns="http://www.w3.org/2000/svg"
   xmlns:inkscape="http://www.inkscape.org/namespaces/inkscape"
   xmlns:sodipodi="http://sodipodi.sourceforge.net/DTD/sodipodi-0.dtd"
   xmlns:xlink="http://www.w3.org/1999/xlink"
   xmlns:rdf="http://www.w3.org/1999/02/22-rdf-syntax-ns#"
   xmlns:cc="http://web.resource.org/cc/"
   xmlns:dc="http://purl.org/dc/elements/1.1/">
  <metadata
     id="metadata33">
    <rdf:RDF
       id="RDF34">
      <cc:Work
         rdf:about=""
         id="Work35">
        <dc:format
           id="format36">image/svg+xml</dc:format>
        <dc:type
           id="type38"
           rdf:resource="http://purl.org/dc/dcmitype/StillImage" />
      </cc:Work>
    </rdf:RDF>
  </metadata>
  <defs
     id="defs850">
    <linearGradient
       id="linearGradient658">
      <stop
         style="stop-color:#ffff32;stop-opacity:1;"
         offset="0"
         id="stop659" />
      <stop
         style="stop-color:#ffad00;stop-opacity:1;"
         offset="1"
         id="stop660" />
    </linearGradient>
    <linearGradient
       id="linearGradient867">
      <stop
         style="stop-color:#92b5d7;stop-opacity:0.780392;"
         offset="0.000000"
         id="stop868" />
      <stop
         style="stop-color:#ffffff;stop-opacity:0.321569;"
         offset="1.000000"
         id="stop869" />
    </linearGradient>
    <linearGradient
       id="linearGradient860">
      <stop
         style="stop-color:#92b5d7;stop-opacity:1;"
         offset="0.000000"
         id="stop861" />
      <stop
         style="stop-color:#ffffff;stop-opacity:1;"
         offset="1.000000"
         id="stop862" />
    </linearGradient>
    <linearGradient
       xlink:href="#linearGradient860"
       id="linearGradient863"
       x1="37.1263046"
       y1="43.8387909"
       x2="68.4099197"
       y2="44.9346657"
       gradientUnits="userSpaceOnUse"
       gradientTransform="scale(1.036866,0.964444)"
       spreadMethod="reflect" />
    <radialGradient
       xlink:href="#linearGradient658"
       id="radialGradient864"
       r="35.8405914"
       fy="37.0078964"
       fx="52.7579117"
       cy="37.0078964"
       cx="52.7579117"
       spreadMethod="reflect"
       gradientTransform="matrix(1.036866,0,0,0.964444,1.409599e-6,3.093137e-8)"
       gradientUnits="userSpaceOnUse" />
    <linearGradient
       xlink:href="#linearGradient867"
       id="linearGradient866"
       x1="38.6465225"
       y1="64.3994370"
       x2="39.4948082"
       y2="29.9777260"
       gradientUnits="userSpaceOnUse"
       spreadMethod="pad"
       gradientTransform="scale(1.261031,0.793002)" />
    <linearGradient
       xlink:href="#linearGradient867"
       id="linearGradient871"
       x1="28.1977272"
       y1="108.285172"
       x2="33.4352608"
       y2="93.4385986"
       gradientUnits="userSpaceOnUse"
       spreadMethod="pad"
       gradientTransform="scale(1.520920,0.657497)" />
    <sodipodi:namedview
       id="namedview863"
       inkscape:zoom="9.65625000"
       inkscape:cx="16.0000000"
       inkscape:cy="20.1423948"
       inkscape:window-width="1014"
       inkscape:window-height="696"
       inkscape:window-x="0"
       inkscape:window-y="0" />
    <defs
       id="defs550">
      <linearGradient
         x1="0.00000000"
         y1="0.00000000"
         x2="1.00000000"
         y2="0.00000000"
         id="linearGradient556"
         gradientUnits="objectBoundingBox"
         spreadMethod="pad">
        <stop
           style="stop-color:#ff8700;stop-opacity:1;"
           offset="0.00000000"
           id="stop557" />
        <stop
           style="stop-color:#ffff8d;stop-opacity:0;"
           offset="1.00000000"
           id="stop558" />
      </linearGradient>
      <linearGradient
         x1="0.00000000"
         y1="0.00000000"
         x2="1.00000000"
         y2="0.00000000"
         id="linearGradient559"
         xlink:href="#linearGradient556"
         gradientUnits="objectBoundingBox"
         spreadMethod="pad" />
    </defs>
  </defs>
  <sodipodi:namedview
     id="base"
     inkscape:zoom="8.1022652"
     inkscape:cx="12.748096"
     inkscape:cy="12.401633"
     inkscape:window-width="1014"
     inkscape:window-height="686"
     inkscape:window-x="0"
     inkscape:window-y="25"
     inkscape:current-layer="svg848" />
  <g
     id="g852"
     transform="matrix(0.296142,0.000000,0.000000,0.296142,1.902374,0.759302)">
    <path
       style="font-size:12.000000;fill:#000000;fill-opacity:0.29999998;fill-rule:evenodd;stroke-width:1.0000000pt"
       d="M 11.269500,13.544100 C 10.857600,13.544100 9.2958000,56.382400 12.389300,59.696900 C 21.043600,69.807900 74.909100,82.708000 76.235000,80.719200 C 77.560800,78.730500 87.002500,39.528500 83.466900,36.876900 C 72.929000,23.721700 12.595300,10.229500 11.269500,13.544100 z "
       id="path914"
       transform="matrix(1.124488,0.000000,0.000000,1.124488,-6.542840,-1.654100)"
       sodipodi:nodetypes="ccccc" />
    <path
       style="font-size:12.000000;fill:#3d4e67;fill-rule:evenodd;stroke-width:1.0000000pt"
       d="M 11.269500,13.544100 C 10.857600,13.544100 9.2958000,56.382400 12.389300,59.696900 C 21.043600,69.807900 74.909100,82.708000 76.235000,80.719200 C 77.560800,78.730500 87.002500,39.528500 83.466900,36.876900 C 72.929000,23.721700 12.595300,10.229500 11.269500,13.544100 z "
       id="path859"
       transform="matrix(1.124488,0.000000,0.000000,1.124488,-10.96226,-8.946139)"
       sodipodi:nodetypes="ccccc" />
    <path
       style="font-size:12.000000;fill:url(#linearGradient863);stroke-width:1.0000000pt"
       d="M 11.269500,13.544100 C 11.269500,13.544100 9.5017500,55.970500 12.595300,59.285000 C 15.688900,62.599600 74.909100,82.708000 76.235000,80.719200 C 77.560800,78.730500 86.178700,38.292800 82.643100,35.641200 C 79.107600,32.989500 12.595300,10.229500 11.269500,13.544100 z "
       id="path856"
       transform="translate(-5.082326,-3.093586)" />
    <path
       style="font-size:12.000000;fill:#3d4e67;fill-rule:evenodd;stroke-width:1.0000000pt"
       d="M 13.921200,59.948000 C 13.258200,60.169000 27.621300,56.412400 32.482800,53.097800 C 32.924700,52.876900 42.868400,53.539800 45.962000,56.633400 C 49.055500,59.727000 68.280000,76.078900 74.467200,80.719200 C 64.302600,80.056300 21.434100,72.985200 13.921200,59.948000 z "
       id="path855"
       sodipodi:nodetypes="ccccc"
       transform="translate(-5.082326,-3.093586)" />
    <path
       style="font-size:12.000000;fill:#ffffff;fill-rule:evenodd;stroke-width:1.0000000pt"
       d="M 13.921200,59.948000 C 14.142100,59.948000 28.284200,57.959200 33.145700,54.644600 C 33.587600,54.423700 42.868400,54.202700 45.962000,57.296300 C 49.055500,60.389900 72.699400,80.498300 74.467200,80.719200 C 76.235000,80.940200 19.445400,68.786800 13.921200,59.948000 z "
       id="path858"
       sodipodi:nodetypes="ccccc"
       transform="matrix(0.837680,0.000000,0.000000,0.837680,0.105843,7.220649)" />
    <path
       style="font-size:12.000000;fill:#3d4e67;fill-rule:evenodd;stroke-width:1.0000000pt"
       d="M 81.759300,35.420200 C 81.759300,35.420200 39.774700,60.169000 36.018200,56.854400 C 27.621300,48.899400 11.048500,13.102100 11.711500,12.439200 C 14.142200,10.450500 64.965400,20.173200 81.759300,35.420200 z "
       id="path854"
       sodipodi:nodetypes="cccc"
       transform="translate(-5.082326,-3.093586)" />
    <path
       style="font-size:12.000000;fill:#ffffff;fill-rule:evenodd;stroke-width:1.0000000pt"
       d="M 84.039300,35.673500 C 81.759300,36.686900 39.774700,60.169000 36.018200,56.854400 C 27.621300,48.899400 10.288500,12.088800 10.951500,11.425900 C 13.382200,9.4371800 65.978700,20.933200 84.039300,35.673500 z "
       id="path857"
       sodipodi:nodetypes="cccc"
       transform="matrix(0.872265,0.000000,0.000000,0.872265,0.223256,0.893154)" />
    <path
       style="font-size:12.000000;fill:url(#linearGradient866);fill-rule:evenodd;stroke-width:1.0000000pt"
       d="M 84.039300,35.673500 C 81.759300,36.686900 39.774700,60.169000 36.018200,56.854400 C 27.621300,48.899400 10.288500,12.088800 10.951500,11.425900 C 13.382200,9.4371800 65.978700,20.933200 84.039300,35.673500 z "
       id="path865"
       sodipodi:nodetypes="cccc"
       transform="matrix(0.872265,0.000000,0.000000,0.872265,0.223256,0.893154)" />
    <path
       style="font-size:12.000000;fill:url(#linearGradient871);fill-rule:evenodd;stroke-width:1.0000000pt"
       d="M 13.921200,59.948000 C 14.142100,59.948000 28.284200,57.959200 33.145700,54.644600 C 33.587600,54.423700 42.868400,54.202700 45.962000,57.296300 C 49.055500,60.389900 72.699400,80.498300 74.467200,80.719200 C 76.235000,80.940200 19.445400,68.786800 13.921200,59.948000 z "
       id="path870"
       sodipodi:nodetypes="ccccc"
       transform="matrix(0.837680,0.000000,0.000000,0.837680,0.105843,7.220649)" />
  </g>
</svg>
