solid ascii
  facet normal 1.000000e+00 -0.000000e+00 0.000000e+00
    outer loop
      vertex   2.000000e-02 2.000000e-02 2.190000e+00
      vertex   2.000000e-02 2.000000e-02 2.000000e-02
      vertex   2.000000e-02 2.100000e+00 2.190000e+00
    endloop
  endfacet
  facet normal 1.000000e+00 -0.000000e+00 0.000000e+00
    outer loop
      vertex   2.000000e-02 2.100000e+00 2.190000e+00
      vertex   2.000000e-02 2.000000e-02 2.000000e-02
      vertex   2.000000e-02 2.100000e+00 2.000000e-02
    endloop
  endfacet
  facet normal 0.000000e+00 -0.000000e+00 1.000000e+00
    outer loop
      vertex   2.000000e-02 2.000000e-02 2.000000e-02
      vertex   3.630000e+00 2.000000e-02 2.000000e-02
      vertex   2.000000e-02 2.100000e+00 2.000000e-02
    endloop
  endfacet
  facet normal -0.000000e+00 0.000000e+00 1.000000e+00
    outer loop
      vertex   2.000000e-02 2.100000e+00 2.000000e-02
      vertex   3.630000e+00 2.000000e-02 2.000000e-02
      vertex   3.630000e+00 2.100000e+00 2.000000e-02
    endloop
  endfacet
  facet normal -1.000000e+00 0.000000e+00 0.000000e+00
    outer loop
      vertex   3.630000e+00 2.000000e-02 2.000000e-02
      vertex   3.630000e+00 2.000000e-02 2.190000e+00
      vertex   3.630000e+00 2.100000e+00 2.000000e-02
    endloop
  endfacet
  facet normal -1.000000e+00 0.000000e+00 0.000000e+00
    outer loop
      vertex   3.630000e+00 2.100000e+00 2.000000e-02
      vertex   3.630000e+00 2.000000e-02 2.190000e+00
      vertex   3.630000e+00 2.100000e+00 2.190000e+00
    endloop
  endfacet
  facet normal 0.000000e+00 0.000000e+00 -1.000000e+00
    outer loop
      vertex   3.630000e+00 2.000000e-02 2.190000e+00
      vertex   2.000000e-02 2.000000e-02 2.190000e+00
      vertex   3.630000e+00 2.100000e+00 2.190000e+00
    endloop
  endfacet
  facet normal -0.000000e+00 0.000000e+00 -1.000000e+00
    outer loop
      vertex   3.630000e+00 2.100000e+00 2.190000e+00
      vertex   2.000000e-02 2.000000e-02 2.190000e+00
      vertex   2.000000e-02 2.100000e+00 2.190000e+00
    endloop
  endfacet
  facet normal 0.000000e+00 1.000000e+00 0.000000e+00
    outer loop
      vertex   3.630000e+00 2.000000e-02 2.190000e+00
      vertex   3.630000e+00 2.000000e-02 2.000000e-02
      vertex   2.000000e-02 2.000000e-02 2.190000e+00
    endloop
  endfacet
  facet normal 0.000000e+00 1.000000e+00 0.000000e+00
    outer loop
      vertex   2.000000e-02 2.000000e-02 2.190000e+00
      vertex   3.630000e+00 2.000000e-02 2.000000e-02
      vertex   2.000000e-02 2.000000e-02 2.000000e-02
    endloop
  endfacet
  facet normal -1.000000e+00 0.000000e+00 0.000000e+00
    outer loop
      vertex   0.000000e+00 0.000000e+00 0.000000e+00
      vertex   0.000000e+00 0.000000e+00 2.210000e+00
      vertex   0.000000e+00 2.100000e+00 0.000000e+00
    endloop
  endfacet
  facet normal -1.000000e+00 0.000000e+00 0.000000e+00
    outer loop
      vertex   0.000000e+00 2.100000e+00 0.000000e+00
      vertex   0.000000e+00 0.000000e+00 2.210000e+00
      vertex   0.000000e+00 2.100000e+00 2.210000e+00
    endloop
  endfacet
  facet normal 0.000000e+00 0.000000e+00 -1.000000e+00
    outer loop
      vertex   3.650000e+00 0.000000e+00 0.000000e+00
      vertex   0.000000e+00 0.000000e+00 0.000000e+00
      vertex   3.650000e+00 2.100000e+00 0.000000e+00
    endloop
  endfacet
  facet normal -0.000000e+00 0.000000e+00 -1.000000e+00
    outer loop
      vertex   3.650000e+00 2.100000e+00 0.000000e+00
      vertex   0.000000e+00 0.000000e+00 0.000000e+00
      vertex   0.000000e+00 2.100000e+00 0.000000e+00
    endloop
  endfacet
  facet normal 1.000000e+00 -0.000000e+00 0.000000e+00
    outer loop
      vertex   3.650000e+00 0.000000e+00 2.210000e+00
      vertex   3.650000e+00 0.000000e+00 0.000000e+00
      vertex   3.650000e+00 2.100000e+00 2.210000e+00
    endloop
  endfacet
  facet normal 1.000000e+00 -0.000000e+00 0.000000e+00
    outer loop
      vertex   3.650000e+00 2.100000e+00 2.210000e+00
      vertex   3.650000e+00 0.000000e+00 0.000000e+00
      vertex   3.650000e+00 2.100000e+00 0.000000e+00
    endloop
  endfacet
  facet normal 0.000000e+00 -0.000000e+00 1.000000e+00
    outer loop
      vertex   0.000000e+00 0.000000e+00 2.210000e+00
      vertex   3.650000e+00 0.000000e+00 2.210000e+00
      vertex   0.000000e+00 2.100000e+00 2.210000e+00
    endloop
  endfacet
  facet normal -0.000000e+00 0.000000e+00 1.000000e+00
    outer loop
      vertex   0.000000e+00 2.100000e+00 2.210000e+00
      vertex   3.650000e+00 0.000000e+00 2.210000e+00
      vertex   3.650000e+00 2.100000e+00 2.210000e+00
    endloop
  endfacet
  facet normal -0.000000e+00 1.000000e+00 -0.000000e+00
    outer loop
      vertex   2.000000e-02 2.100000e+00 2.190000e+00
      vertex   0.000000e+00 2.100000e+00 2.210000e+00
      vertex   3.630000e+00 2.100000e+00 2.190000e+00
    endloop
  endfacet
  facet normal 0.000000e+00 1.000000e+00 0.000000e+00
    outer loop
      vertex   2.000000e-02 2.100000e+00 2.190000e+00
      vertex   2.000000e-02 2.100000e+00 2.000000e-02
      vertex   0.000000e+00 2.100000e+00 2.210000e+00
    endloop
  endfacet
  facet normal 0.000000e+00 1.000000e+00 0.000000e+00
    outer loop
      vertex   0.000000e+00 2.100000e+00 2.210000e+00
      vertex   2.000000e-02 2.100000e+00 2.000000e-02
      vertex   0.000000e+00 2.100000e+00 0.000000e+00
    endloop
  endfacet
  facet normal 0.000000e+00 1.000000e+00 0.000000e+00
    outer loop
      vertex   0.000000e+00 2.100000e+00 0.000000e+00
      vertex   2.000000e-02 2.100000e+00 2.000000e-02
      vertex   3.630000e+00 2.100000e+00 2.000000e-02
    endloop
  endfacet
  facet normal 0.000000e+00 1.000000e+00 -0.000000e+00
    outer loop
      vertex   3.650000e+00 2.100000e+00 0.000000e+00
      vertex   3.630000e+00 2.100000e+00 2.000000e-02
      vertex   3.630000e+00 2.100000e+00 2.190000e+00
    endloop
  endfacet
  facet normal 0.000000e+00 1.000000e+00 0.000000e+00
    outer loop
      vertex   3.650000e+00 2.100000e+00 2.210000e+00
      vertex   3.630000e+00 2.100000e+00 2.190000e+00
      vertex   0.000000e+00 2.100000e+00 2.210000e+00
    endloop
  endfacet
  facet normal 0.000000e+00 1.000000e+00 0.000000e+00
    outer loop
      vertex   3.650000e+00 2.100000e+00 2.210000e+00
      vertex   3.650000e+00 2.100000e+00 0.000000e+00
      vertex   3.630000e+00 2.100000e+00 2.190000e+00
    endloop
  endfacet
  facet normal -0.000000e+00 1.000000e+00 0.000000e+00
    outer loop
      vertex   0.000000e+00 2.100000e+00 0.000000e+00
      vertex   3.630000e+00 2.100000e+00 2.000000e-02
      vertex   3.650000e+00 2.100000e+00 0.000000e+00
    endloop
  endfacet
  facet normal 0.000000e+00 -1.000000e+00 0.000000e+00
    outer loop
      vertex   0.000000e+00 0.000000e+00 2.210000e+00
      vertex   0.000000e+00 0.000000e+00 0.000000e+00
      vertex   3.650000e+00 0.000000e+00 2.210000e+00
    endloop
  endfacet
  facet normal 0.000000e+00 -1.000000e+00 -0.000000e+00
    outer loop
      vertex   3.650000e+00 0.000000e+00 2.210000e+00
      vertex   0.000000e+00 0.000000e+00 0.000000e+00
      vertex   3.650000e+00 0.000000e+00 0.000000e+00
    endloop
  endfacet
endsolid
solid ascii
  facet normal 0.000000e+00 0.000000e+00 -1.000000e+00
    outer loop
      vertex   6.200000e-01 2.000000e-02 2.200000e-01
      vertex   2.000000e-02 2.000000e-02 2.200000e-01
      vertex   6.200000e-01 6.200000e-01 2.200000e-01
    endloop
  endfacet
  facet normal -0.000000e+00 0.000000e+00 -1.000000e+00
    outer loop
      vertex   6.200000e-01 6.200000e-01 2.200000e-01
      vertex   2.000000e-02 2.000000e-02 2.200000e-01
      vertex   2.000000e-02 6.200000e-01 2.200000e-01
    endloop
  endfacet
  facet normal 1.000000e+00 -0.000000e+00 0.000000e+00
    outer loop
      vertex   6.200000e-01 2.000000e-02 1.870000e+00
      vertex   6.200000e-01 2.000000e-02 2.200000e-01
      vertex   6.200000e-01 6.200000e-01 1.870000e+00
    endloop
  endfacet
  facet normal 1.000000e+00 -0.000000e+00 0.000000e+00
    outer loop
      vertex   6.200000e-01 6.200000e-01 1.870000e+00
      vertex   6.200000e-01 2.000000e-02 2.200000e-01
      vertex   6.200000e-01 6.200000e-01 2.200000e-01
    endloop
  endfacet
  facet normal 0.000000e+00 -0.000000e+00 1.000000e+00
    outer loop
      vertex   2.000000e-02 2.000000e-02 1.870000e+00
      vertex   6.200000e-01 2.000000e-02 1.870000e+00
      vertex   2.000000e-02 6.200000e-01 1.870000e+00
    endloop
  endfacet
  facet normal -0.000000e+00 0.000000e+00 1.000000e+00
    outer loop
      vertex   2.000000e-02 6.200000e-01 1.870000e+00
      vertex   6.200000e-01 2.000000e-02 1.870000e+00
      vertex   6.200000e-01 6.200000e-01 1.870000e+00
    endloop
  endfacet
  facet normal -1.000000e+00 0.000000e+00 0.000000e+00
    outer loop
      vertex   2.000000e-02 2.000000e-02 2.200000e-01
      vertex   2.000000e-02 2.000000e-02 1.870000e+00
      vertex   2.000000e-02 6.200000e-01 2.200000e-01
    endloop
  endfacet
  facet normal -1.000000e+00 0.000000e+00 0.000000e+00
    outer loop
      vertex   2.000000e-02 6.200000e-01 2.200000e-01
      vertex   2.000000e-02 2.000000e-02 1.870000e+00
      vertex   2.000000e-02 6.200000e-01 1.870000e+00
    endloop
  endfacet
  facet normal -0.000000e+00 1.000000e+00 0.000000e+00
    outer loop
      vertex   2.000000e-02 6.200000e-01 2.200000e-01
      vertex   2.000000e-02 6.200000e-01 1.870000e+00
      vertex   6.200000e-01 6.200000e-01 2.200000e-01
    endloop
  endfacet
  facet normal 0.000000e+00 1.000000e+00 -0.000000e+00
    outer loop
      vertex   6.200000e-01 6.200000e-01 2.200000e-01
      vertex   2.000000e-02 6.200000e-01 1.870000e+00
      vertex   6.200000e-01 6.200000e-01 1.870000e+00
    endloop
  endfacet
  facet normal 0.000000e+00 -1.000000e+00 0.000000e+00
    outer loop
      vertex   2.000000e-02 2.000000e-02 1.870000e+00
      vertex   2.000000e-02 2.000000e-02 2.200000e-01
      vertex   6.200000e-01 2.000000e-02 1.870000e+00
    endloop
  endfacet
  facet normal 0.000000e+00 -1.000000e+00 -0.000000e+00
    outer loop
      vertex   6.200000e-01 2.000000e-02 1.870000e+00
      vertex   2.000000e-02 2.000000e-02 2.200000e-01
      vertex   6.200000e-01 2.000000e-02 2.200000e-01
    endloop
  endfacet
endsolid
