solid ascii
  facet normal -1.000000e+00 0.000000e+00 0.000000e+00
    outer loop
      vertex   8.880349e-02 0.000000e+00 9.808062e-02
      vertex   8.880349e-02 0.000000e+00 7.980806e-01
      vertex   8.880349e-02 7.000000e-01 9.808062e-02
    endloop
  endfacet
  facet normal -1.000000e+00 0.000000e+00 0.000000e+00
    outer loop
      vertex   8.880349e-02 7.000000e-01 9.808062e-02
      vertex   8.880349e-02 0.000000e+00 7.980806e-01
      vertex   8.880349e-02 7.000000e-01 7.980806e-01
    endloop
  endfacet
  facet normal 0.000000e+00 0.000000e+00 -1.000000e+00
    outer loop
      vertex   1.588803e+00 0.000000e+00 9.808062e-02
      vertex   8.880349e-02 0.000000e+00 9.808062e-02
      vertex   1.588803e+00 7.000000e-01 9.808062e-02
    endloop
  endfacet
  facet normal -0.000000e+00 0.000000e+00 -1.000000e+00
    outer loop
      vertex   1.588803e+00 7.000000e-01 9.808062e-02
      vertex   8.880349e-02 0.000000e+00 9.808062e-02
      vertex   8.880349e-02 7.000000e-01 9.808062e-02
    endloop
  endfacet
  facet normal 1.000000e+00 -0.000000e+00 0.000000e+00
    outer loop
      vertex   1.588803e+00 0.000000e+00 7.980806e-01
      vertex   1.588803e+00 0.000000e+00 9.808062e-02
      vertex   1.588803e+00 7.000000e-01 7.980806e-01
    endloop
  endfacet
  facet normal 1.000000e+00 -0.000000e+00 0.000000e+00
    outer loop
      vertex   1.588803e+00 7.000000e-01 7.980806e-01
      vertex   1.588803e+00 0.000000e+00 9.808062e-02
      vertex   1.588803e+00 7.000000e-01 9.808062e-02
    endloop
  endfacet
  facet normal 0.000000e+00 -0.000000e+00 1.000000e+00
    outer loop
      vertex   8.880349e-02 0.000000e+00 7.980806e-01
      vertex   1.588803e+00 0.000000e+00 7.980806e-01
      vertex   8.880349e-02 7.000000e-01 7.980806e-01
    endloop
  endfacet
  facet normal -0.000000e+00 0.000000e+00 1.000000e+00
    outer loop
      vertex   8.880349e-02 7.000000e-01 7.980806e-01
      vertex   1.588803e+00 0.000000e+00 7.980806e-01
      vertex   1.588803e+00 7.000000e-01 7.980806e-01
    endloop
  endfacet
  facet normal 0.000000e+00 1.000000e+00 0.000000e+00
    outer loop
      vertex   1.588803e+00 7.000000e-01 7.980806e-01
      vertex   1.588803e+00 7.000000e-01 9.808062e-02
      vertex   8.880349e-02 7.000000e-01 7.980806e-01
    endloop
  endfacet
  facet normal 0.000000e+00 1.000000e+00 0.000000e+00
    outer loop
      vertex   8.880349e-02 7.000000e-01 7.980806e-01
      vertex   1.588803e+00 7.000000e-01 9.808062e-02
      vertex   8.880349e-02 7.000000e-01 9.808062e-02
    endloop
  endfacet
  facet normal 0.000000e+00 -1.000000e+00 0.000000e+00
    outer loop
      vertex   8.880349e-02 0.000000e+00 7.980806e-01
      vertex   8.880349e-02 0.000000e+00 9.808062e-02
      vertex   1.588803e+00 0.000000e+00 7.980806e-01
    endloop
  endfacet
  facet normal 0.000000e+00 -1.000000e+00 -0.000000e+00
    outer loop
      vertex   1.588803e+00 0.000000e+00 7.980806e-01
      vertex   8.880349e-02 0.000000e+00 9.808062e-02
      vertex   1.588803e+00 0.000000e+00 9.808062e-02
    endloop
  endfacet
endsolid
